<svg xmlns="http://www.w3.org/2000/svg" xmlns:xlink="http://www.w3.org/1999/xlink" version="1.0" x="0" y="0" width="2400" height="839.3733118638568" viewBox="69.00979782104493 89.67980361938477 201.98040435791015 70.640400390625" preserveAspectRatio="xMidYMid meet" color-interpolation-filters="sRGB"><g><defs><linearGradient id="92" x1="0%" y1="0%" x2="100%" y2="0%"><stop offset="0%" stop-color="#fa71cd"></stop> <stop offset="100%" stop-color="#9b59b6"></stop></linearGradient><linearGradient id="93" x1="0%" y1="0%" x2="100%" y2="0%"><stop offset="0%" stop-color="#f9d423"></stop> <stop offset="100%" stop-color="#f83600"></stop></linearGradient><linearGradient id="94" x1="0%" y1="0%" x2="100%" y2="0%"><stop offset="0%" stop-color="#0064d2"></stop> <stop offset="100%" stop-color="#1cb0f6"></stop></linearGradient><linearGradient id="95" x1="0%" y1="0%" x2="100%" y2="0%"><stop offset="0%" stop-color="#f00978"></stop> <stop offset="100%" stop-color="#3f51b1"></stop></linearGradient><linearGradient id="96" x1="0%" y1="0%" x2="100%" y2="0%"><stop offset="0%" stop-color="#7873f5"></stop> <stop offset="100%" stop-color="#ec77ab"></stop></linearGradient><linearGradient id="97" x1="0%" y1="0%" x2="100%" y2="0%"><stop offset="0%" stop-color="#f9d423"></stop> <stop offset="100%" stop-color="#e14fad"></stop></linearGradient><linearGradient id="98" x1="0%" y1="0%" x2="100%" y2="0%"><stop offset="0%" stop-color="#009efd"></stop> <stop offset="100%" stop-color="#2af598"></stop></linearGradient><linearGradient id="99" x1="0%" y1="0%" x2="100%" y2="0%"><stop offset="0%" stop-color="#ffcc00"></stop> <stop offset="100%" stop-color="#00b140"></stop></linearGradient><linearGradient id="100" x1="0%" y1="0%" x2="100%" y2="0%"><stop offset="0%" stop-color="#d51007"></stop> <stop offset="100%" stop-color="#ff8177"></stop></linearGradient><linearGradient id="102" x1="0%" y1="0%" x2="100%" y2="0%"><stop offset="0%" stop-color="#a2b6df"></stop> <stop offset="100%" stop-color="#0c3483"></stop></linearGradient><linearGradient id="103" x1="0%" y1="0%" x2="100%" y2="0%"><stop offset="0%" stop-color="#7ac5d8"></stop> <stop offset="100%" stop-color="#eea2a2"></stop></linearGradient><linearGradient id="104" x1="0%" y1="0%" x2="100%" y2="0%"><stop offset="0%" stop-color="#00ecbc"></stop> <stop offset="100%" stop-color="#007adf"></stop></linearGradient><linearGradient id="105" x1="0%" y1="0%" x2="100%" y2="0%"><stop offset="0%" stop-color="#b88746"></stop> <stop offset="100%" stop-color="#fdf5a6"></stop></linearGradient></defs><g fill="#f50c80" class="basesvg" transform="translate(70.98999786376953,91.65999984741211)"><g fill-rule="" class="tp-name"><g transform="scale(1)"><g><path d="M50.6-15.82L50.6-15.82Q50.6-12.92 49.86-10.6 49.12-8.28 47.91-6.52 46.69-4.77 45.09-3.53 43.49-2.3 41.73-1.52 39.97-0.74 38.17-0.37 36.38 0 34.77 0L34.77 0 4.25 0 4.25-11.27 34.68-11.27Q36.98-11.27 38.15-12.44 39.32-13.61 39.32-15.82L39.32-15.82Q39.11-20.33 34.77-20.33L34.77-20.33 17.3-20.33Q13.57-20.33 10.97-21.63 8.37-22.93 6.74-24.89 5.12-26.84 4.4-29.09 3.69-31.35 3.69-33.3L3.69-33.3Q3.69-37.07 5.03-39.65 6.37-42.23 8.41-43.83 10.45-45.44 12.83-46.15 15.22-46.87 17.3-46.87L17.3-46.87 45-46.87 45-35.59 17.39-35.59Q16.52-35.59 16.02-35.4 15.52-35.2 15.28-34.88 15.04-34.55 15-34.19 14.96-33.82 14.96-33.47L14.96-33.47Q15-32.78 15.22-32.39 15.43-32 15.76-31.82 16.08-31.65 16.5-31.63 16.91-31.61 17.3-31.61L17.3-31.61 34.77-31.61Q39.11-31.61 42.14-30.05 45.18-28.48 47.04-26.12 48.9-23.76 49.75-20.98 50.6-18.21 50.6-15.82ZM103.47-31.09L103.47-15.82Q103.47-12.92 102.74-10.6 102-8.28 100.78-6.52 99.57-4.77 97.97-3.53 96.36-2.3 94.61-1.52 92.85-0.74 91.05-0.37 89.25 0 87.65 0L87.65 0 67.31 0Q64.97 0 62.2-0.82 59.42-1.65 57.06-3.53 54.7-5.42 53.11-8.43 51.53-11.45 51.53-15.82L51.53-15.82 51.53-31.09Q51.53-35.42 53.11-38.43 54.7-41.45 57.06-43.33 59.42-45.22 62.2-46.04 64.97-46.87 67.31-46.87L67.31-46.87 87.65-46.87Q91.98-46.87 95.02-45.31 98.05-43.75 99.92-41.38 101.78-39.02 102.63-36.25 103.47-33.47 103.47-31.09L103.47-31.09ZM92.2-15.82L92.2-31Q92.2-33.34 91.03-34.47 89.86-35.59 87.65-35.59L87.65-35.59 67.4-35.59Q65.15-35.59 63.98-34.45 62.8-33.3 62.8-31.09L62.8-31.09 62.8-15.82Q62.8-13.61 63.98-12.44 65.15-11.27 67.4-11.27L67.4-11.27 87.65-11.27Q89.95-11.27 91.07-12.44 92.2-13.61 92.2-15.82L92.2-15.82ZM127.65-11.27L127.65 0 122.62 0Q120.19 0 117.44-0.82 114.68-1.65 112.3-3.53 109.92-5.42 108.35-8.43 106.79-11.45 106.79-15.82L106.79-15.82 106.79-66.68 118.07-66.68 118.07-15.82Q118.07-13.74 119.37-12.51 120.67-11.27 122.62-11.27L122.62-11.27 127.65-11.27ZM149.48-11.27L149.48 0 144.45 0Q142.02 0 139.27-0.82 136.52-1.65 134.13-3.53 131.75-5.42 130.19-8.43 128.63-11.45 128.63-15.82L128.63-15.82 128.63-66.68 139.9-66.68 139.9-15.82Q139.9-13.74 141.2-12.51 142.5-11.27 144.45-11.27L144.45-11.27 149.48-11.27ZM201.71-31.09L201.71-15.82Q201.71-12.92 200.97-10.6 200.23-8.28 199.02-6.52 197.81-4.77 196.2-3.53 194.6-2.3 192.84-1.52 191.09-0.74 189.29-0.37 187.49 0 185.88 0L185.88 0 165.55 0Q163.21 0 160.43-0.82 157.66-1.65 155.3-3.53 152.93-5.42 151.35-8.43 149.77-11.45 149.77-15.82L149.77-15.82 149.77-31.09Q149.77-35.42 151.35-38.43 152.93-41.45 155.3-43.33 157.66-45.22 160.43-46.04 163.21-46.87 165.55-46.87L165.55-46.87 185.88-46.87Q190.22-46.87 193.25-45.31 196.29-43.75 198.15-41.38 200.02-39.02 200.86-36.25 201.71-33.47 201.71-31.09L201.71-31.09ZM190.44-15.82L190.44-31Q190.44-33.34 189.26-34.47 188.09-35.59 185.88-35.59L185.88-35.59 165.64-35.59Q163.38-35.59 162.21-34.45 161.04-33.3 161.04-31.09L161.04-31.09 161.04-15.82Q161.04-13.61 162.21-12.44 163.38-11.27 165.64-11.27L165.64-11.27 185.88-11.27Q188.18-11.27 189.31-12.44 190.44-13.61 190.44-15.82L190.44-15.82Z" transform="translate(-3.690000057220459, 66.68000030517578)"></path></g> </g></g> </g><defs v-gra="od"></defs></g></svg>